# xmcd
#
# Track frame offsets:
#	150
#	18022
#	34060
#	57880
#	74737
#	88155
#	110229
#	131862
#	148807
#	165430
#	177997
#	192280
#
# Disc length: 2729
#
# Revision: 3
# Processed by: cddbd v1.5.1PL0 Copyright (c) Steve Scherf et al.
# Submitted via: ExactAudioCopy v0.95a3
# Normalized: r2:DSETVAR1
#
DISCID=b10aa70c
DTITLE=Various Artist - Amazing Grace 2: A Country Salute To Gospel
DYEAR=1997
DGENRE=Gospel
TTITLE0=John Berry - Old Rugged Cross
TTITLE1=Trace Adkins - Wafaring Stranger
TTITLE2=Lari White - There Is Power In The Blood
TTITLE3=Bryan White - Will The Circle Be Unbroken - I'll Fly Away - Jesus Loves Me
TTITLE4=Kim Richey - A Beautiful Life
TTITLE5=Gary Chapman - I Surrender All
TTITLE6=Béla Fleck - Amazing Grace
TTITLE7=Charlie Daniels - Just a Little Talk With Jesus
TTITLE8=Marty Raybon - Were You There?
TTITLE9=Billy Ray Cyrus - Just As I Am
TTITLE10=The Cox Family - 'Neath The Old Olive trees
TTITLE11=Ricky Van Shelton - Precious Lord, Take My Hand
EXTD=\nYEAR: 2000  ID3G:   2
EXTT0=
EXTT1=
EXTT2=
EXTT3=
EXTT4=
EXTT5=
EXTT6=
EXTT7=
EXTT8=
EXTT9=
EXTT10=
EXTT11=
PLAYORDER=
